<svg width="32" height="40" viewBox="0 0 32 40" fill="none" xmlns="http://www.w3.org/2000/svg">
<path d="M20.2407 11.0862C21.4138 11.0873 22.5735 11.3419 23.6441 11.8333C24.7147 12.3248 25.6723 13.0421 26.4543 13.9384L28.9027 11.6757C27.3355 9.88911 25.2795 8.62823 23.0028 8.05769C20.7261 7.48709 18.3346 7.63331 16.1402 8.47723C13.9458 9.32114 12.0504 10.8236 10.7015 12.7884C9.35256 14.7533 8.61271 17.0894 8.5784 19.4919C8.54408 21.8943 9.21698 24.2516 10.5092 26.2561C11.8015 28.2606 13.6531 29.8193 15.8225 30.7287C17.9918 31.638 20.3782 31.8559 22.6702 31.3539C24.9622 30.8519 27.0533 29.6533 28.6708 27.9145L26.2781 25.5852C25.325 26.607 24.1397 27.3708 22.8283 27.8083C21.5169 28.2457 20.1201 28.3433 18.7629 28.092C17.4057 27.8409 16.1305 27.2489 15.051 26.369C13.9715 25.489 13.1216 24.3486 12.5771 23.0496C12.0327 21.7506 11.8106 20.3335 11.9309 18.9251C12.0513 17.5166 12.5101 16.1607 13.2664 14.9785C14.0228 13.7962 15.0532 12.8246 16.2654 12.1503C17.4776 11.4761 18.8338 11.1203 20.213 11.1147L20.2407 11.0862Z" fill="#FEFCFF"/>
<path d="M8.36934 8.31158L5.95383 5.97559C4.06684 7.77731 2.56951 9.91891 1.54773 12.2775C0.526013 14.636 0 17.165 0 19.7192C0 22.2733 0.526013 24.8023 1.54773 27.1608C2.56951 29.5194 4.06684 31.661 5.95383 33.4627L8.36934 31.1267C6.79608 29.6351 5.54702 27.8587 4.69448 25.9005C3.842 23.9423 3.40303 21.8413 3.40303 19.7192C3.40303 17.597 3.842 15.496 4.69448 13.5378C5.54702 11.5796 6.79608 9.80323 8.36934 8.31158Z" fill="#FEFCFF"/>
<path d="M31.0859 3.86931C27.7924 1.35059 23.8127 -0.00512434 19.7275 1.45556e-05V3.39163C23.0983 3.3884 26.3827 4.50259 29.1058 6.57303L31.0859 3.86931Z" fill="#FEFCFF"/>
<path d="M19.7275 36.0925V39.4384C23.5489 39.4427 27.2885 38.329 30.4881 36.2338L28.6085 33.4629C25.9645 35.1832 22.8793 36.0968 19.7275 36.0925Z" fill="#FEFCFF"/>
<path d="M19.728 31.9602C17.1393 31.9585 14.6137 31.1846 12.493 29.7434C10.3723 28.3022 8.75893 26.2631 7.87118 23.9023L4.78271 25.2948C5.94575 28.2266 7.99624 30.7476 10.6641 32.5257C13.3319 34.3038 16.492 35.2555 19.728 35.2557V31.9602Z" fill="#FEFCFF"/>
<path d="M7.48269 19.1213C7.68319 15.9779 9.06019 13.0292 11.3342 10.8736C13.6082 8.71799 16.609 7.51681 19.7276 7.51376V4.18262C15.7338 4.1825 11.8929 5.73325 8.99969 8.51393C6.10647 11.2947 4.38245 15.0924 4.18457 19.1213H7.48269Z" fill="#FEFCFF"/>
</svg>
